<?xml version="1.0" encoding="UTF-8"?><svg id="Layer_1" xmlns="http://www.w3.org/2000/svg" viewBox="0 0 688.53 202.65"><defs><style>.cls-1{fill:#fff;}.cls-2{fill:#fee204;}</style></defs><g><g><path d="M161.37,201.79c-1.25,0-2.48-.39-3.55-1.13-.92-.63-1.66-1.43-2.19-2.38l-.09-.16-20-45.11c-.71-1.56-.7-3.25,.05-4.73,.87-1.75,2.64-2.8,4.73-2.8h10.76c1.24,0,2.47,.39,3.54,1.13,.93,.64,1.67,1.44,2.19,2.38l.09,.17,8.88,20.28,8.82-20.27,.09-.17c.52-.94,1.26-1.75,2.2-2.39,1.07-.74,2.3-1.13,3.54-1.13h10.96c1.91,0,3.55,.92,4.5,2.53,.89,1.52,.98,3.26,.25,4.8l-20.18,45.32-.09,.16c-.53,.94-1.26,1.74-2.19,2.38-1.07,.74-2.3,1.13-3.54,1.13h-8.78Z"/><path d="M225.13,202.65c-3.97,0-7.77-.78-11.3-2.31-3.49-1.52-6.58-3.62-9.17-6.23-2.58-2.61-4.66-5.7-6.17-9.17-1.53-3.53-2.31-7.33-2.31-11.3s.78-7.77,2.31-11.3c1.51-3.48,3.59-6.56,6.17-9.17,2.59-2.62,5.68-4.71,9.17-6.23,3.53-1.53,7.33-2.31,11.3-2.31s7.77,.78,11.3,2.31c3.48,1.51,6.57,3.61,9.19,6.22,2.61,2.61,4.71,5.7,6.22,9.19,1.53,3.53,2.31,7.33,2.31,11.3s-.78,7.77-2.31,11.3c-1.52,3.49-3.61,6.58-6.22,9.19-2.61,2.61-5.7,4.7-9.19,6.22-3.53,1.53-7.33,2.31-11.3,2.31Zm0-37.42c-1.04,0-2,.21-2.92,.64-1.01,.48-1.87,1.08-2.61,1.86-.73,.76-1.29,1.64-1.72,2.69-.42,1.04-.63,2.1-.63,3.22s.2,2.21,.62,3.23c.43,1.05,1.01,1.95,1.75,2.74,.74,.78,1.58,1.39,2.59,1.86,.92,.43,1.88,.64,2.92,.64s2-.21,2.92-.64c1.02-.48,1.88-1.09,2.65-1.89,.75-.79,1.33-1.67,1.76-2.71,.42-1.02,.62-2.07,.62-3.23s-.21-2.17-.63-3.21c-.42-1.04-.99-1.91-1.72-2.67-.77-.78-1.64-1.4-2.67-1.88-.92-.43-1.88-.64-2.92-.64Z"/><path d="M266.38,201.79c-1.59,0-3.04-.62-4.08-1.74-.98-1.06-1.5-2.39-1.5-3.85v-45.14c0-1.46,.52-2.79,1.5-3.84,1.05-1.13,2.5-1.74,4.09-1.74h9.9c1.49,0,2.89,.58,3.94,1.63,1.06,1.06,1.64,2.46,1.64,3.96v30.58h17.45c1.49,0,2.89,.58,3.95,1.63,1.06,1.06,1.64,2.46,1.64,3.96v8.98c0,1.49-.58,2.9-1.63,3.95-1.05,1.05-2.46,1.63-3.95,1.63h-32.93Z"/><path d="M314.89,201.79c-1.49,0-2.9-.58-3.95-1.63-1.05-1.05-1.63-2.45-1.63-3.95v-45.14c0-1.49,.58-2.9,1.63-3.95,1.06-1.06,2.46-1.63,3.95-1.63h33.59c1.49,0,2.89,.58,3.94,1.62,1.06,1.07,1.64,2.47,1.64,3.96v8.98c0,1.49-.58,2.9-1.63,3.95-.69,.69-1.52,1.17-2.43,1.43,.93,1.04,1.43,2.35,1.43,3.73v9.11c0,1.3-.44,2.53-1.25,3.52,.84,.27,1.6,.73,2.24,1.36,1.06,1.07,1.64,2.47,1.64,3.96v9.11c0,1.49-.58,2.9-1.63,3.95-1.06,1.06-2.46,1.63-3.95,1.63h-33.59Z"/><path d="M368.47,201.79c-1.59,0-3.04-.62-4.08-1.74-.98-1.06-1.49-2.39-1.49-3.84v-45.08c0-1.45,.51-2.78,1.48-3.83,1.05-1.13,2.5-1.75,4.09-1.75h9.92c1.49,0,2.9,.58,3.95,1.64,1.05,1.06,1.63,2.46,1.63,3.95v45.08c0,1.49-.58,2.89-1.62,3.94-1.06,1.06-2.46,1.64-3.95,1.64h-9.92Z"/><path d="M398.31,201.79c-1.5,0-2.9-.58-3.96-1.64-1.05-1.04-1.63-2.45-1.63-3.95v-45.14c0-1.49,.58-2.9,1.63-3.95,1.05-1.05,2.46-1.63,3.95-1.63h19.93c2.41,0,4.77,.27,7,.8,2.43,.58,4.63,1.56,6.52,2.92,1.97,1.41,3.57,3.26,4.76,5.5,1.21,2.27,1.82,5,1.82,8.12,0,2.79-.73,5.28-2.18,7.4-.37,.55-.76,1.06-1.16,1.55,.76,.7,1.46,1.5,2.1,2.39,.82,1.15,1.48,2.48,1.98,3.94,.51,1.51,.77,3.21,.77,5.05,0,3.45-.59,6.42-1.75,8.83-1.19,2.46-2.84,4.47-4.91,5.98-1.97,1.44-4.25,2.46-6.77,3.04-2.29,.53-4.71,.8-7.2,.8h-20.92Z"/><path d="M473.75,202.65c-3.97,0-7.77-.78-11.3-2.31-3.49-1.52-6.58-3.62-9.17-6.23-2.58-2.61-4.66-5.69-6.17-9.17-1.53-3.53-2.31-7.33-2.31-11.3s.78-7.77,2.31-11.3c1.51-3.48,3.59-6.56,6.17-9.17,2.59-2.62,5.68-4.71,9.17-6.23,3.53-1.53,7.33-2.31,11.3-2.31s7.77,.78,11.3,2.31c3.48,1.51,6.57,3.61,9.19,6.22,2.61,2.62,4.71,5.71,6.22,9.19,1.53,3.53,2.31,7.33,2.31,11.3s-.78,7.77-2.31,11.3c-1.51,3.48-3.61,6.57-6.22,9.19-2.61,2.61-5.7,4.7-9.19,6.22-3.53,1.53-7.33,2.31-11.3,2.31Zm0-37.42c-1.04,0-2,.21-2.92,.64-1.01,.48-1.87,1.08-2.61,1.86-.73,.76-1.29,1.64-1.72,2.69-.43,1.05-.63,2.1-.63,3.22s.2,2.21,.62,3.23c.43,1.06,1.01,1.95,1.75,2.74,.74,.78,1.58,1.39,2.58,1.86,.92,.43,1.88,.64,2.92,.64s2-.21,2.92-.64c1.02-.48,1.88-1.1,2.65-1.89,.76-.79,1.33-1.67,1.76-2.71,.42-1.02,.62-2.07,.62-3.23s-.21-2.17-.63-3.21c-.42-1.04-.99-1.91-1.72-2.67-.77-.79-1.64-1.4-2.67-1.89-.92-.43-1.88-.64-2.92-.64Z"/><path d="M515,201.79c-1.59,0-3.04-.62-4.08-1.74-.98-1.06-1.5-2.39-1.5-3.85v-45.14c0-1.46,.52-2.79,1.5-3.84,1.05-1.13,2.5-1.74,4.09-1.74h9.9c1.49,0,2.89,.58,3.95,1.63,1.06,1.06,1.64,2.46,1.64,3.96v30.58h17.45c1.49,0,2.89,.58,3.95,1.63,1.06,1.06,1.64,2.46,1.64,3.96v8.98c0,1.49-.58,2.9-1.63,3.95-1.05,1.05-2.46,1.63-3.95,1.63h-32.93Z"/></g><g><path class="cls-1" d="M159.13,196.34l-19.93-44.95c-.22-.48-.23-.92-.03-1.32,.2-.4,.58-.59,1.15-.59h10.76c.44,0,.87,.14,1.29,.43,.42,.29,.74,.63,.96,1.02l11.62,26.53c.22,.4,.51,.59,.86,.59s.64-.2,.86-.59l11.55-26.53c.22-.4,.54-.74,.96-1.02,.42-.29,.85-.43,1.29-.43h10.96c.48,0,.84,.19,1.06,.56,.22,.37,.24,.74,.07,1.09l-20.13,45.21c-.22,.4-.54,.74-.96,1.02-.42,.29-.85,.43-1.29,.43h-8.78c-.44,0-.87-.14-1.29-.43-.42-.29-.74-.63-.96-1.02Z"/><path class="cls-1" d="M200.18,173.63c0-3.43,.66-6.67,1.98-9.7,1.32-3.04,3.1-5.69,5.35-7.95,2.24-2.27,4.88-4.06,7.92-5.38,3.04-1.32,6.27-1.98,9.7-1.98s6.67,.66,9.7,1.98c3.04,1.32,5.69,3.11,7.95,5.38,2.27,2.27,4.06,4.92,5.38,7.95s1.98,6.27,1.98,9.7-.66,6.67-1.98,9.7-3.11,5.69-5.38,7.95c-2.27,2.27-4.92,4.06-7.95,5.38s-6.27,1.98-9.7,1.98-6.67-.66-9.7-1.98c-3.04-1.32-5.68-3.11-7.92-5.38-2.24-2.27-4.03-4.92-5.35-7.95-1.32-3.04-1.98-6.27-1.98-9.7Zm13.07,0c0,1.67,.31,3.26,.92,4.75,.62,1.5,1.46,2.82,2.54,3.96,1.08,1.14,2.34,2.06,3.79,2.74,1.45,.68,2.99,1.02,4.62,1.02s3.17-.34,4.62-1.02c1.45-.68,2.73-1.59,3.83-2.74,1.1-1.14,1.96-2.46,2.57-3.96,.62-1.5,.92-3.08,.92-4.75s-.31-3.2-.92-4.72c-.62-1.52-1.47-2.84-2.57-3.96-1.1-1.12-2.38-2.02-3.83-2.71-1.45-.68-2.99-1.02-4.62-1.02s-3.17,.34-4.62,1.02c-1.45,.68-2.72,1.58-3.79,2.71-1.08,1.12-1.93,2.44-2.54,3.96-.62,1.52-.92,3.09-.92,4.72Z"/><path class="cls-1" d="M300.9,187.23v8.98c0,.44-.15,.81-.46,1.12s-.68,.46-1.12,.46h-32.93c-.48,0-.87-.15-1.16-.46s-.43-.68-.43-1.12v-45.14c0-.44,.14-.81,.43-1.12,.29-.31,.67-.46,1.16-.46h9.9c.44,0,.81,.16,1.12,.46,.31,.31,.46,.68,.46,1.12v33c0,.44,.14,.82,.43,1.12,.29,.31,.67,.46,1.16,.46h19.87c.44,0,.81,.16,1.12,.46,.31,.31,.46,.68,.46,1.12Z"/><path class="cls-1" d="M326.37,163.21v2.77c0,.44,.15,.82,.46,1.12,.31,.31,.68,.46,1.12,.46h17.89c.44,0,.81,.16,1.12,.46,.31,.31,.46,.68,.46,1.12v9.11c0,.44-.16,.81-.46,1.12-.31,.31-.68,.46-1.12,.46h-17.89c-.44,0-.82,.15-1.12,.46-.31,.31-.46,.68-.46,1.12v2.51c0,.44,.15,.81,.46,1.12,.31,.31,.68,.46,1.12,.46h20.53c.44,0,.81,.16,1.12,.46,.31,.31,.46,.68,.46,1.12v9.11c0,.44-.15,.81-.46,1.12-.31,.31-.68,.46-1.12,.46h-33.59c-.44,0-.81-.15-1.12-.46-.31-.31-.46-.68-.46-1.12v-45.14c0-.44,.15-.81,.46-1.12,.31-.31,.68-.46,1.12-.46h33.59c.44,0,.81,.16,1.12,.46,.31,.31,.46,.68,.46,1.12v8.98c0,.44-.15,.81-.46,1.12-.31,.31-.68,.46-1.12,.46h-20.53c-.44,0-.82,.15-1.12,.46-.31,.31-.46,.68-.46,1.12Z"/><path class="cls-1" d="M378.39,197.79h-9.92c-.48,0-.86-.15-1.15-.46-.28-.31-.43-.68-.43-1.12v-45.08c0-.44,.14-.81,.43-1.12,.29-.31,.67-.46,1.15-.46h9.92c.44,0,.81,.15,1.12,.46,.31,.31,.46,.68,.46,1.12v45.08c0,.44-.15,.81-.46,1.12-.31,.31-.68,.46-1.12,.46Z"/><path class="cls-1" d="M429.79,172.91c.7,.4,1.41,.88,2.11,1.45,.7,.57,1.35,1.28,1.95,2.11,.59,.84,1.08,1.8,1.45,2.9,.37,1.1,.56,2.35,.56,3.76,0,2.86-.45,5.23-1.35,7.09-.9,1.87-2.12,3.37-3.66,4.49s-3.31,1.91-5.31,2.38c-2,.46-4.1,.69-6.3,.69h-20.92c-.44,0-.82-.15-1.12-.46-.31-.31-.46-.68-.46-1.12v-45.14c0-.44,.15-.81,.46-1.12s.68-.46,1.12-.46h19.93c2.11,0,4.13,.23,6.07,.69,1.94,.46,3.64,1.22,5.11,2.28,1.47,1.06,2.66,2.43,3.56,4.12,.9,1.69,1.35,3.77,1.35,6.24,0,1.98-.49,3.7-1.48,5.15s-2.06,2.6-3.2,3.43c-.79,.57-.75,1.08,.13,1.52Zm-18.41-5.08h6.14c.88,0,1.58-.34,2.11-1.02,.53-.68,.79-1.44,.79-2.28,0-.79-.32-1.47-.96-2.05-.64-.57-1.24-.86-1.81-.86h-6.27c-.44,0-.81,.15-1.12,.46-.31,.31-.46,.68-.46,1.12v3.04c0,.44,.15,.81,.46,1.12s.68,.46,1.12,.46Zm6.93,10.89h-6.93c-.44,0-.81,.15-1.12,.46-.31,.31-.46,.68-.46,1.12v3.76c0,.44,.15,.82,.46,1.12,.31,.31,.68,.46,1.12,.46h7.39c.79,0,1.54-.33,2.24-.99,.7-.66,1.06-1.43,1.06-2.31,0-.79-.34-1.59-1.02-2.41-.68-.81-1.59-1.22-2.74-1.22Z"/><path class="cls-1" d="M448.8,173.63c0-3.43,.66-6.67,1.98-9.7,1.32-3.04,3.1-5.69,5.35-7.95,2.24-2.27,4.88-4.06,7.92-5.38,3.04-1.32,6.27-1.98,9.7-1.98s6.67,.66,9.7,1.98c3.04,1.32,5.69,3.11,7.95,5.38,2.27,2.27,4.06,4.92,5.38,7.95,1.32,3.04,1.98,6.27,1.98,9.7s-.66,6.67-1.98,9.7c-1.32,3.04-3.11,5.69-5.38,7.95s-4.92,4.06-7.95,5.38c-3.04,1.32-6.27,1.98-9.7,1.98s-6.67-.66-9.7-1.98-5.68-3.11-7.92-5.38c-2.24-2.27-4.03-4.92-5.35-7.95-1.32-3.04-1.98-6.27-1.98-9.7Zm13.07,0c0,1.67,.31,3.26,.92,4.75,.62,1.5,1.46,2.82,2.54,3.96,1.08,1.14,2.34,2.06,3.79,2.74,1.45,.68,2.99,1.02,4.62,1.02s3.17-.34,4.62-1.02c1.45-.68,2.73-1.59,3.83-2.74,1.1-1.14,1.96-2.46,2.57-3.96,.62-1.5,.92-3.08,.92-4.75s-.31-3.2-.92-4.72c-.62-1.52-1.47-2.84-2.57-3.96s-2.38-2.02-3.83-2.71c-1.45-.68-2.99-1.02-4.62-1.02s-3.17,.34-4.62,1.02c-1.45,.68-2.72,1.58-3.79,2.71-1.08,1.12-1.93,2.44-2.54,3.96-.62,1.52-.92,3.09-.92,4.72Z"/><path class="cls-1" d="M549.52,187.23v8.98c0,.44-.15,.81-.46,1.12s-.68,.46-1.12,.46h-32.93c-.48,0-.87-.15-1.16-.46s-.43-.68-.43-1.12v-45.14c0-.44,.14-.81,.43-1.12,.29-.31,.67-.46,1.16-.46h9.9c.44,0,.81,.16,1.12,.46,.31,.31,.46,.68,.46,1.12v33c0,.44,.14,.82,.43,1.12,.29,.31,.67,.46,1.16,.46h19.87c.44,0,.81,.16,1.12,.46,.31,.31,.46,.68,.46,1.12Z"/></g></g><g><g><polygon points="0 124.62 0 90.3 7 90.3 7 34.32 0 34.32 0 0 54.06 0 54.06 34.32 47.06 34.32 47.06 90.3 60.06 90.3 60.06 83.3 94.24 83.3 94.24 124.62 0 124.62"/><path d="M43.06,30.32v63.98h21v-7h26.18v33.32H4v-26.32h7V30.32H4V4H50.06V30.32h-7Z"/><polygon points="92.26 124.62 92.26 90.3 99.26 90.3 99.26 34.32 92.26 34.32 92.26 0 146.32 0 146.32 34.32 139.32 34.32 139.32 90.3 146.32 90.3 146.32 124.62 92.26 124.62"/><path d="M142.32,120.62h-46.06v-26.32h7V30.32h-7V4h46.06V30.32h-7v63.98h7v26.32Z"/><path d="M146.16,124.62v-34.32h7V34.32h-7V0h77.9l20.96,21.06V54.12l-6.04,6.02,6.04,6.04v37.47l-20.96,20.96h-77.9Zm57.41-34.32l1.39-1.34v-10.18l-1.39-1.34h-10.35v12.86h10.35Zm-.03-47.18l1.43-1.42v-5.97l-1.43-1.42h-10.31v8.8h10.31Z"/><path d="M241.02,67.84v34.16l-18.62,18.62h-72.24v-26.32h7V30.32h-7V4h72.24l18.62,18.71v29.75l-7.7,7.68,7.7,7.7Zm-32.06-33.77l-3.78-3.75h-15.96v16.8h15.96l3.78-3.75v-9.3Zm0,43.01l-3.78-3.64h-15.96v20.86h15.96l3.78-3.64v-13.58Z"/><path d="M303.52,124.62v-45.74l-1.44-1.44h-10.3v12.86h7v34.32h-54.06v-34.32h7V34.32h-7V0h77.9l20.96,21.06V54.12l-6.01,6,6.01,5.9v24.28h7v34.32h-47.06Zm-1.43-81.5l1.43-1.42v-5.97l-1.43-1.42h-10.31v8.8h10.31Z"/><path d="M287.78,94.3h7v26.32h-46.06v-26.32h7V30.32h-7V4h72.24l18.62,18.71v29.75l-7.7,7.68,7.7,7.56v26.6h7v26.32h-39.06v-43.4l-3.78-3.78h-15.96v20.86Zm0-47.18h15.96l3.78-3.75v-9.3l-3.78-3.75h-15.96v16.8Z"/><path d="M421.82,124.62v-31.5h-18.88v31.5h-52.66v-34.32h8.29l22.42-55.98h-3.13V0h70.02V34.32h-3.97l22.42,55.98h8.29v34.32h-52.8Zm-7.94-61.9l-1.5-3.74-1.5,3.74h3.01Z"/><path d="M443.88,4V30.32h-5.88l25.62,63.98h7v26.32h-44.8v-26.32h3.78l-1.68-5.18h-30.94l-1.82,5.18h3.78v26.32h-44.66v-26.32h7l25.62-63.98h-5.04V4h62.02Zm-38.92,62.72h14.84l-7.42-18.48-7.42,18.48Z"/><polygon points="498.12 124.62 498.12 90.3 501.61 90.3 482.99 34.32 472.5 34.32 472.5 0 527.54 0 527.54 34.32 525.17 34.32 532.62 56.57 539.98 34.32 537.74 34.32 537.74 0 594.04 0 594.04 34.32 582.41 34.32 563.67 90.3 568.14 90.3 568.14 124.62 498.12 124.62"/><path d="M545.52,30.32h-3.78V4h48.3V30.32h-10.5l-21.42,63.98h6.02v26.32h-62.02v-26.32h5.04l-21.28-63.98h-9.38V4h47.04V30.32h-3.92l13.02,38.92,12.88-38.92Z"/><path d="M612.88,124.62l-20.96-20.94V21.09L612.87,0h54.71l20.96,21.09V103.68l-20.96,20.94h-54.69Zm34.3-34.32l1.29-1.29V35.71l-1.34-1.39h-13.73l-1.43,1.43v53.21l1.39,1.34h13.82Z"/><path d="M595.91,22.74l18.62-18.74h51.38l18.62,18.74V102.02l-18.62,18.6h-51.38l-18.62-18.6V22.74Zm56.56,11.35l-3.64-3.77h-17.08l-3.78,3.77v56.58l3.78,3.63h17.08l3.64-3.63V34.09Z"/></g><g><path class="cls-2" d="M43.06,30.32v63.98h21v-7h26.18v33.32H4v-26.32h7V30.32H4V4H50.06V30.32h-7Z"/><path class="cls-2" d="M142.32,120.62h-46.06v-26.32h7V30.32h-7V4h46.06V30.32h-7v63.98h7v26.32Z"/><path class="cls-2" d="M241.02,67.84v34.16l-18.62,18.62h-72.24v-26.32h7V30.32h-7V4h72.24l18.62,18.71v29.75l-7.7,7.68,7.7,7.7Zm-32.06-33.77l-3.78-3.75h-15.96v16.8h15.96l3.78-3.75v-9.3Zm0,43.01l-3.78-3.64h-15.96v20.86h15.96l3.78-3.64v-13.58Z"/><path class="cls-2" d="M287.78,94.3h7v26.32h-46.06v-26.32h7V30.32h-7V4h72.24l18.62,18.71v29.75l-7.7,7.68,7.7,7.56v26.6h7v26.32h-39.06v-43.4l-3.78-3.78h-15.96v20.86Zm0-47.18h15.96l3.78-3.75v-9.3l-3.78-3.75h-15.96v16.8Z"/><path class="cls-2" d="M443.88,4V30.32h-5.88l25.62,63.98h7v26.32h-44.8v-26.32h3.78l-1.68-5.18h-30.94l-1.82,5.18h3.78v26.32h-44.66v-26.32h7l25.62-63.98h-5.04V4h62.02Zm-38.92,62.72h14.84l-7.42-18.48-7.42,18.48Z"/><path class="cls-2" d="M545.52,30.32h-3.78V4h48.3V30.32h-10.5l-21.42,63.98h6.02v26.32h-62.02v-26.32h5.04l-21.28-63.98h-9.38V4h47.04V30.32h-3.92l13.02,38.92,12.88-38.92Z"/><path class="cls-2" d="M595.91,22.74l18.62-18.74h51.38l18.62,18.74V102.02l-18.62,18.6h-51.38l-18.62-18.6V22.74Zm56.56,11.35l-3.64-3.77h-17.08l-3.78,3.77v56.58l3.78,3.63h17.08l3.64-3.63V34.09Z"/></g></g></svg>