<?xml version="1.0" encoding="UTF-8"?><svg id="Layer_2" xmlns="http://www.w3.org/2000/svg" viewBox="0 0 905.49 439.71"><defs><style>.cls-1{fill:#fff;}.cls-2{fill:#fee204;}</style></defs><g id="Layer_1-2"><g><g><path d="M0,297.52l9.22-1.05V110.55l-9.22-1.05V0L13.68,2.83c20,4.14,40.33,8.05,60.44,11.62l9.38,1.67V118.3l-9.26-.9v172.22c1.68-.16,3.36-.32,5.05-.48v-21.2l10.55-.76c11.61-.84,23.34-1.65,34.88-2.4l12.11-.79v118.38l-9.66,1.47c-37.83,5.75-76.02,12.61-113.49,20.37l-13.68,2.83v-109.5Z"/><path d="M117.8,285.64l9.29-.77V122.14l-9.29-.77V21.79l13.06,1.96c20.15,3.03,40.62,5.81,60.85,8.27l10,1.21V127.63l-9.32-.62v153.01l9.32-.62v94.39l-10,1.21c-20.22,2.46-40.69,5.24-60.85,8.27l-13.06,1.96v-99.58Z"/><path d="M185.95,280.43l9.32-.6V127.2l-9.32-.6V31.36l12.7,1.5c31.74,3.75,64.01,6.84,95.88,9.17l6.47,.47,2.88,5.81c7.9,15.92,16.22,32.45,24.73,49.12l1.24,2.43v81.56l-1.32,2.5c-2.49,4.71-4.98,9.43-7.47,14.17,2.48,4.63,4.96,9.25,7.43,13.85l1.36,2.52v92.53l-1.24,2.43c-8.5,16.71-16.82,33.28-24.73,49.27l-2.88,5.82-6.48,.48c-31.88,2.34-64.14,5.42-95.88,9.17l-12.7,1.5v-95.24Zm74.75-4.32c.93-.05,1.86-.09,2.79-.13,.29-.6,.57-1.19,.86-1.79v-29.33c-.18-.37-.37-.74-.55-1.11-1.03,.02-2.07,.03-3.1,.05v32.31Zm3.16-123.82c.16-.32,.32-.64,.48-.96v-18.57c-.27-.57-.55-1.13-.83-1.7-.94-.04-1.88-.09-2.82-.14v21.29c1.05,.02,2.11,.05,3.16,.07Z"/><path d="M313.91,273.86l9.36-.3V133.46l-9.36-.3V43.4l12.04,.71c31.88,1.87,64.23,3.05,96.17,3.5l6.72,.09,3.16,5.93c7.45,14.01,15.34,28.75,24.81,46.41l1.35,2.52v79.63l-8.71,16.07,8.71,15.76v57.44h9.37v87.77l-14.72-.02c-16.16,0-32.52,.18-48.62,.54l-8.5,.19-8.5,.26c-20.31,.62-40.91,1.53-61.23,2.72l-12.04,.71v-89.76Zm74.93-1.9l3.71-.06v-28.66l-.46-.9c-1.08,0-2.17,.01-3.25,.02v29.6Zm3.3-117.75l.42-.8v-17.28l-.53-1.02c-1.06-.02-2.13-.03-3.19-.05v19.13c1.1,0,2.2,.02,3.3,.02Z"/><path d="M617.69,365.49c-19.79-1.51-39.91-2.77-59.78-3.74l-10.82-.53v-79.54c-4.35-.09-8.71-.17-13.07-.24v79.24l-11.74-.38c-19.7-.63-39.69-1-59.4-1.09l-11.32-.05v-87.74s11.52,.03,11.58,.03c10.78-49.64,20.14-92.84,29.46-136.08l-4.04,.05V47.55l11.12-.24c27.37-.59,55.1-1.72,82.42-3.36l12.05-.72v89.83l-5.37,.18c10.52,49.47,20.3,96.03,29.76,141.67,.16,0,11.38,.48,11.38,.48v91.03l-12.24-.94Z"/><path d="M737.41,377.99c-27.26-3.61-54.95-6.75-82.31-9.32l-10.31-.97v-91.63l4.6,.24c-7.87-47.2-16.08-95.69-24.45-144.49-.8,.03-14.24,.61-14.24,.61V42.08l10.49-.82c20.68-1.61,41.62-3.55,62.24-5.76l12.58-1.35v93.96l-2.97,.17c1.3,7.78,2.59,15.56,3.88,23.34,1.28-7.96,2.56-15.9,3.83-23.81l-3.01,.2V33.94l10.03-1.19c21.14-2.51,42.56-5.37,63.64-8.51l13.04-1.94V121.65s-13.77,1.12-15.43,1.26c-8.07,52.84-16.41,106.32-24.84,159.27l6.1,.44v97.07l-12.87-1.71Z"/><path d="M867.26,399.25c-22.34-4.36-45.04-8.41-67.46-12.05l-6.23-1.01-2.44-5.83c-8.09-19.35-16.42-38.79-24.75-57.79l-.96-2.18V86.64l.96-2.18c8.34-19.01,16.67-38.45,24.75-57.79l2.44-5.83,6.23-1.01c22.45-3.65,45.15-7.7,67.46-12.05l8.81-1.72,3.71,8.18c8.35,18.38,16.69,37.24,24.78,56.06l.92,2.15V334.58l-.92,2.15c-8.1,18.83-16.44,37.69-24.78,56.06l-3.71,8.18-8.81-1.72Zm-27.51-108.8c.25-.57,.5-1.13,.75-1.7V118.26c-.25-.57-.5-1.13-.75-1.7-2.53,.25-5.05,.5-7.58,.74-.52,1.23-1.04,2.46-1.56,3.68v165.03c.52,1.23,1.04,2.45,1.56,3.68,2.53,.25,5.05,.49,7.58,.74Z"/></g><g><path class="cls-2" d="M62.87,104.85v197.31c9.25-.93,18.52-1.82,27.79-2.68v-20.98c11.59-.84,23.19-1.64,34.8-2.4,0,32.15,0,64.31,0,96.47-38.16,5.8-76.2,12.63-114.08,20.47v-85.38c3.07-.35,6.15-.7,9.23-1.04V100.39c-3.08-.34-6.15-.69-9.23-1.04V13.97c20.21,4.19,40.47,8.08,60.76,11.68V105.77c-3.09-.3-6.17-.61-9.26-.91Z"/><path class="cls-2" d="M190.34,363.71c-20.42,2.48-40.81,5.25-61.17,8.31v-75.9c3.1-.26,6.19-.51,9.29-.76,0-61.23,0-122.46,0-183.69-3.1-.25-6.2-.5-9.29-.76V35c20.36,3.06,40.75,5.83,61.17,8.31V115.47c-3.11-.21-6.21-.42-9.32-.63v177.34c3.1-.21,6.21-.43,9.32-.63v72.16Z"/><path class="cls-2" d="M318.5,217.33v86.94c-8.26,16.25-16.52,32.69-24.78,49.38-32.18,2.36-64.31,5.43-96.39,9.22v-71.78c3.11-.2,6.21-.4,9.32-.59V116.53c-3.11-.19-6.21-.39-9.32-.59V44.15c32.07,3.79,64.21,6.86,96.39,9.22,8.26,16.64,16.52,33.03,24.78,49.23v76c-3.43,6.48-6.86,12.99-10.29,19.53,3.43,6.43,6.86,12.82,10.29,19.19Zm-42.78-87.19c-1.64-3.37-3.27-6.74-4.91-10.13-7.16-.33-14.32-.68-21.48-1.05v44.35c7.16,.18,14.32,.34,21.48,.5,1.64-3.27,3.27-6.54,4.91-9.8v-23.88Zm0,112.05c-1.64-3.3-3.27-6.61-4.91-9.93-7.16,.11-14.32,.23-21.48,.36v55.44c7.16-.37,14.32-.72,21.48-1.05,1.64-3.42,3.27-6.83,4.91-10.23v-34.58Z"/><path class="cls-2" d="M377.46,283.54c3.12-.06,6.24-.12,9.36-.17,0,21.82,0,43.64,0,65.46-20.52,.62-41.04,1.53-61.55,2.74v-66.69c3.12-.1,6.24-.2,9.36-.29,0-54.05,0-108.1,0-162.15-3.12-.09-6.24-.19-9.36-.29V55.45c32.2,1.89,64.43,3.06,96.67,3.52,8.27,15.55,16.55,31.02,24.82,46.44v73.88c-3.44,6.33-6.87,12.67-10.31,19.01,3.43,6.22,6.87,12.43,10.31,18.64v65.88c3.12,0,6.25,0,9.37,0v65.01c-17.41-.03-34.82,.15-52.23,.55v-107.89c-1.64-3.18-3.28-6.36-4.92-9.55-7.18,.03-14.36,.07-21.54,.12v52.48Zm0-118.07c7.18,.06,14.36,.12,21.54,.17,1.64-3.15,3.28-6.29,4.92-9.44v-22.83c-1.64-3.17-3.28-6.35-4.92-9.53-7.18-.1-14.36-.21-21.54-.35v41.98Z"/><path class="cls-2" d="M582.79,55.3V122.06c-2.65,.09-5.3,.17-7.95,.25,11.46,53.78,22.92,108.21,34.37,163.6,3.12,.12,6.23,.25,9.35,.38,0,22.62,0,45.24,0,67.86-20.02-1.53-40.05-2.78-60.1-3.76v-66.17c1.79,.05,3.59,.1,5.38,.15-.78-4.59-1.56-9.17-2.34-13.75-13.8-.32-27.61-.57-41.43-.77-.86,4.5-1.72,8.99-2.58,13.49,1.72,.03,3.43,.06,5.15,.09v65.51c-19.9-.64-39.81-1.01-59.71-1.1,0-21.67,0-43.35,0-65.02,3.12,0,6.24,.02,9.37,.04,11.48-52.85,22.95-105.76,34.42-159.04-2.26,.03-4.53,.06-6.79,.09V58.68c27.63-.6,55.25-1.72,82.85-3.38Zm-52.18,158.71c6.71,.02,13.42,.04,20.13,.06-3.35-15.26-6.71-30.48-10.06-45.66-3.35,15.24-6.71,30.44-10.07,45.6Z"/><path class="cls-2" d="M714.22,115.54c-1.71,.11-3.42,.23-5.13,.34V44.04c21.36-2.53,42.68-5.38,63.98-8.55V111.17c-4.65,.38-9.29,.75-13.94,1.11-9.38,61.55-18.76,121.59-28.14,180.35,2.64,.19,5.28,.38,7.91,.57v73.52c-27.53-3.65-55.12-6.77-82.74-9.37v-69.3c2.26,.12,4.51,.23,6.77,.35-9.49-57.11-18.99-113.17-28.49-168.39-4.13,.19-8.25,.37-12.38,.55V52.59c20.87-1.63,41.73-3.56,62.56-5.79V117.39c-1.63,.1-3.26,.19-4.9,.29,5.75,34.38,11.5,69.14,17.25,104.34,5.75-35.05,11.5-70.53,17.24-106.49Z"/><path class="cls-2" d="M776.79,89.02c8.28-18.88,16.56-38.19,24.83-57.97,22.65-3.68,45.26-7.72,67.81-12.12,8.24,18.13,16.47,36.74,24.69,55.85V332.24c-8.22,19.12-16.45,37.72-24.69,55.85-22.56-4.4-45.16-8.44-67.81-12.12-8.27-19.79-16.55-39.1-24.83-57.97V89.02Zm75.08,26.83c-1.7-3.83-3.39-7.63-5.09-11.42-7.48,.76-14.96,1.49-22.45,2.2-1.7,4.03-3.4,8.04-5.1,12.04,0,56.56,0,113.11,0,169.67,1.7,3.99,3.4,8,5.1,12.04,7.49,.71,14.97,1.45,22.45,2.2,1.7-3.79,3.39-7.59,5.09-11.42V115.86Z"/></g></g><g><g><path d="M269.59,438.85c-1.25,0-2.48-.39-3.55-1.13-.92-.63-1.66-1.43-2.19-2.38l-.09-.16-20-45.11c-.71-1.56-.7-3.25,.05-4.73,.87-1.75,2.64-2.8,4.73-2.8h10.76c1.24,0,2.47,.39,3.54,1.13,.93,.64,1.67,1.44,2.19,2.38l.09,.17,8.88,20.28,8.82-20.27,.09-.17c.52-.94,1.26-1.75,2.2-2.39,1.07-.74,2.3-1.13,3.54-1.13h10.96c1.91,0,3.55,.92,4.5,2.53,.89,1.52,.98,3.26,.25,4.8l-20.18,45.32-.09,.16c-.53,.94-1.26,1.74-2.19,2.38-1.07,.74-2.3,1.13-3.54,1.13h-8.78Z"/><path d="M333.34,439.71c-3.97,0-7.77-.78-11.3-2.31-3.49-1.52-6.58-3.62-9.17-6.23-2.58-2.61-4.66-5.7-6.17-9.17-1.53-3.53-2.31-7.33-2.31-11.3s.78-7.77,2.31-11.3c1.51-3.48,3.59-6.56,6.17-9.17,2.59-2.62,5.68-4.71,9.17-6.23,3.53-1.53,7.33-2.31,11.3-2.31s7.77,.78,11.3,2.31c3.48,1.51,6.57,3.61,9.19,6.22,2.61,2.61,4.71,5.7,6.22,9.19,1.53,3.53,2.31,7.33,2.31,11.3s-.78,7.77-2.31,11.3c-1.52,3.49-3.61,6.58-6.22,9.19-2.61,2.61-5.7,4.7-9.19,6.22-3.53,1.53-7.33,2.31-11.3,2.31Zm0-37.42c-1.04,0-2,.21-2.92,.64-1.01,.48-1.87,1.08-2.61,1.86-.73,.76-1.29,1.64-1.72,2.69-.42,1.04-.63,2.1-.63,3.22s.2,2.21,.62,3.23c.43,1.05,1.01,1.95,1.75,2.74,.74,.78,1.58,1.39,2.59,1.86,.92,.43,1.88,.64,2.92,.64s2-.21,2.92-.64c1.02-.48,1.88-1.09,2.65-1.89,.75-.79,1.33-1.67,1.76-2.71,.42-1.02,.62-2.07,.62-3.23s-.21-2.17-.63-3.21c-.42-1.04-.99-1.91-1.72-2.67-.77-.78-1.64-1.4-2.67-1.88-.92-.43-1.88-.64-2.92-.64Z"/><path d="M374.59,438.85c-1.59,0-3.04-.62-4.08-1.74-.98-1.06-1.5-2.39-1.5-3.85v-45.14c0-1.46,.52-2.79,1.5-3.84,1.05-1.13,2.5-1.74,4.09-1.74h9.9c1.49,0,2.89,.58,3.94,1.63,1.06,1.06,1.64,2.46,1.64,3.96v30.58h17.45c1.49,0,2.89,.58,3.95,1.63,1.06,1.06,1.64,2.46,1.64,3.96v8.98c0,1.49-.58,2.9-1.63,3.95-1.05,1.05-2.46,1.63-3.95,1.63h-32.93Z"/><path d="M423.1,438.85c-1.49,0-2.9-.58-3.95-1.63-1.05-1.05-1.63-2.45-1.63-3.95v-45.14c0-1.49,.58-2.9,1.63-3.95,1.06-1.06,2.46-1.63,3.95-1.63h33.59c1.49,0,2.89,.58,3.94,1.62,1.06,1.07,1.64,2.47,1.64,3.96v8.98c0,1.49-.58,2.9-1.63,3.95-.69,.69-1.52,1.17-2.43,1.43,.93,1.04,1.43,2.35,1.43,3.73v9.11c0,1.3-.44,2.53-1.25,3.52,.84,.27,1.6,.73,2.24,1.36,1.06,1.07,1.64,2.47,1.64,3.96v9.11c0,1.49-.58,2.9-1.63,3.95-1.06,1.06-2.46,1.63-3.95,1.63h-33.59Z"/><path d="M476.69,438.85c-1.59,0-3.04-.62-4.08-1.74-.98-1.06-1.49-2.39-1.49-3.84v-45.08c0-1.45,.51-2.78,1.48-3.83,1.05-1.13,2.5-1.75,4.09-1.75h9.92c1.49,0,2.9,.58,3.95,1.64,1.05,1.06,1.63,2.46,1.63,3.95v45.08c0,1.49-.58,2.89-1.62,3.94-1.06,1.06-2.46,1.64-3.95,1.64h-9.92Z"/><path d="M506.53,438.85c-1.5,0-2.9-.58-3.96-1.64-1.05-1.04-1.63-2.45-1.63-3.95v-45.14c0-1.49,.58-2.9,1.63-3.95,1.05-1.05,2.46-1.63,3.95-1.63h19.93c2.41,0,4.77,.27,7,.8,2.43,.58,4.63,1.56,6.52,2.92,1.97,1.41,3.57,3.26,4.76,5.5,1.21,2.27,1.82,5,1.82,8.12,0,2.79-.73,5.28-2.18,7.4-.37,.55-.76,1.06-1.16,1.55,.76,.7,1.46,1.5,2.1,2.39,.82,1.15,1.48,2.48,1.98,3.94,.51,1.51,.77,3.21,.77,5.05,0,3.45-.59,6.42-1.75,8.83-1.19,2.46-2.84,4.47-4.91,5.98-1.97,1.44-4.25,2.46-6.77,3.04-2.29,.53-4.71,.8-7.2,.8h-20.92Z"/><path d="M581.96,439.71c-3.97,0-7.77-.78-11.3-2.31-3.49-1.52-6.58-3.62-9.17-6.23-2.58-2.61-4.66-5.69-6.17-9.17-1.53-3.53-2.31-7.33-2.31-11.3s.78-7.77,2.31-11.3c1.51-3.48,3.59-6.56,6.17-9.17,2.59-2.62,5.68-4.71,9.17-6.23,3.53-1.53,7.33-2.31,11.3-2.31s7.77,.78,11.3,2.31c3.48,1.51,6.57,3.61,9.19,6.22,2.61,2.62,4.71,5.71,6.22,9.19,1.53,3.53,2.31,7.33,2.31,11.3s-.78,7.77-2.31,11.3c-1.51,3.48-3.61,6.57-6.22,9.19-2.61,2.61-5.7,4.7-9.19,6.22-3.53,1.53-7.33,2.31-11.3,2.31Zm0-37.42c-1.04,0-2,.21-2.92,.64-1.01,.48-1.87,1.08-2.61,1.86-.73,.76-1.29,1.64-1.72,2.69-.43,1.05-.63,2.1-.63,3.22s.2,2.21,.62,3.23c.43,1.06,1.01,1.95,1.75,2.74,.74,.78,1.58,1.39,2.58,1.86,.92,.43,1.88,.64,2.92,.64s2-.21,2.92-.64c1.02-.48,1.88-1.1,2.65-1.89,.76-.79,1.33-1.67,1.76-2.71,.42-1.02,.62-2.07,.62-3.23s-.21-2.17-.63-3.21c-.42-1.04-.99-1.91-1.72-2.67-.77-.79-1.64-1.4-2.67-1.89-.92-.43-1.88-.64-2.92-.64Z"/><path d="M623.21,438.85c-1.59,0-3.04-.62-4.08-1.74-.98-1.06-1.5-2.39-1.5-3.85v-45.14c0-1.46,.52-2.79,1.5-3.84,1.05-1.13,2.5-1.74,4.09-1.74h9.9c1.49,0,2.89,.58,3.95,1.63,1.06,1.06,1.64,2.46,1.64,3.96v30.58h17.45c1.49,0,2.89,.58,3.95,1.63,1.06,1.06,1.64,2.46,1.64,3.96v8.98c0,1.49-.58,2.9-1.63,3.95-1.05,1.05-2.46,1.63-3.95,1.63h-32.93Z"/></g><g><path class="cls-1" d="M267.34,433.4l-19.93-44.95c-.22-.48-.23-.92-.03-1.32,.2-.4,.58-.59,1.15-.59h10.76c.44,0,.87,.14,1.29,.43,.42,.29,.74,.63,.96,1.02l11.62,26.53c.22,.4,.51,.59,.86,.59s.64-.2,.86-.59l11.55-26.53c.22-.4,.54-.74,.96-1.02,.42-.29,.85-.43,1.29-.43h10.96c.48,0,.84,.19,1.06,.56,.22,.37,.24,.74,.07,1.09l-20.13,45.21c-.22,.4-.54,.74-.96,1.02-.42,.29-.85,.43-1.29,.43h-8.78c-.44,0-.87-.14-1.29-.43-.42-.29-.74-.63-.96-1.02Z"/><path class="cls-1" d="M308.4,410.69c0-3.43,.66-6.67,1.98-9.7,1.32-3.04,3.1-5.69,5.35-7.95,2.24-2.27,4.88-4.06,7.92-5.38,3.04-1.32,6.27-1.98,9.7-1.98s6.67,.66,9.7,1.98c3.04,1.32,5.69,3.11,7.95,5.38,2.27,2.27,4.06,4.92,5.38,7.95s1.98,6.27,1.98,9.7-.66,6.67-1.98,9.7-3.11,5.69-5.38,7.95c-2.27,2.27-4.92,4.06-7.95,5.38s-6.27,1.98-9.7,1.98-6.67-.66-9.7-1.98c-3.04-1.32-5.68-3.11-7.92-5.38-2.24-2.27-4.03-4.92-5.35-7.95-1.32-3.04-1.98-6.27-1.98-9.7Zm13.07,0c0,1.67,.31,3.26,.92,4.75,.62,1.5,1.46,2.82,2.54,3.96,1.08,1.14,2.34,2.06,3.79,2.74,1.45,.68,2.99,1.02,4.62,1.02s3.17-.34,4.62-1.02c1.45-.68,2.73-1.59,3.83-2.74,1.1-1.14,1.96-2.46,2.57-3.96,.62-1.5,.92-3.08,.92-4.75s-.31-3.2-.92-4.72c-.62-1.52-1.47-2.84-2.57-3.96-1.1-1.12-2.38-2.02-3.83-2.71-1.45-.68-2.99-1.02-4.62-1.02s-3.17,.34-4.62,1.02c-1.45,.68-2.72,1.58-3.79,2.71-1.08,1.12-1.93,2.44-2.54,3.96-.62,1.52-.92,3.09-.92,4.72Z"/><path class="cls-1" d="M409.11,424.29v8.98c0,.44-.15,.81-.46,1.12s-.68,.46-1.12,.46h-32.93c-.48,0-.87-.15-1.16-.46s-.43-.68-.43-1.12v-45.14c0-.44,.14-.81,.43-1.12,.29-.31,.67-.46,1.16-.46h9.9c.44,0,.81,.16,1.12,.46,.31,.31,.46,.68,.46,1.12v33c0,.44,.14,.82,.43,1.12,.29,.31,.67,.46,1.16,.46h19.87c.44,0,.81,.16,1.12,.46,.31,.31,.46,.68,.46,1.12Z"/><path class="cls-1" d="M434.59,400.27v2.77c0,.44,.15,.82,.46,1.12,.31,.31,.68,.46,1.12,.46h17.89c.44,0,.81,.16,1.12,.46,.31,.31,.46,.68,.46,1.12v9.11c0,.44-.16,.81-.46,1.12-.31,.31-.68,.46-1.12,.46h-17.89c-.44,0-.82,.15-1.12,.46-.31,.31-.46,.68-.46,1.12v2.51c0,.44,.15,.81,.46,1.12,.31,.31,.68,.46,1.12,.46h20.53c.44,0,.81,.16,1.12,.46,.31,.31,.46,.68,.46,1.12v9.11c0,.44-.15,.81-.46,1.12-.31,.31-.68,.46-1.12,.46h-33.59c-.44,0-.81-.15-1.12-.46-.31-.31-.46-.68-.46-1.12v-45.14c0-.44,.15-.81,.46-1.12,.31-.31,.68-.46,1.12-.46h33.59c.44,0,.81,.16,1.12,.46,.31,.31,.46,.68,.46,1.12v8.98c0,.44-.15,.81-.46,1.12-.31,.31-.68,.46-1.12,.46h-20.53c-.44,0-.82,.15-1.12,.46-.31,.31-.46,.68-.46,1.12Z"/><path class="cls-1" d="M486.6,434.85h-9.92c-.48,0-.86-.15-1.15-.46-.28-.31-.43-.68-.43-1.12v-45.08c0-.44,.14-.81,.43-1.12,.29-.31,.67-.46,1.15-.46h9.92c.44,0,.81,.15,1.12,.46,.31,.31,.46,.68,.46,1.12v45.08c0,.44-.15,.81-.46,1.12-.31,.31-.68,.46-1.12,.46Z"/><path class="cls-1" d="M538.01,409.97c.7,.4,1.41,.88,2.11,1.45,.7,.57,1.35,1.28,1.95,2.11,.59,.84,1.08,1.8,1.45,2.9,.37,1.1,.56,2.35,.56,3.76,0,2.86-.45,5.23-1.35,7.09-.9,1.87-2.12,3.37-3.66,4.49s-3.31,1.91-5.31,2.38c-2,.46-4.1,.69-6.3,.69h-20.92c-.44,0-.82-.15-1.12-.46-.31-.31-.46-.68-.46-1.12v-45.14c0-.44,.15-.81,.46-1.12s.68-.46,1.12-.46h19.93c2.11,0,4.13,.23,6.07,.69,1.94,.46,3.64,1.22,5.11,2.28,1.47,1.06,2.66,2.43,3.56,4.12,.9,1.69,1.35,3.77,1.35,6.24,0,1.98-.49,3.7-1.48,5.15s-2.06,2.6-3.2,3.43c-.79,.57-.75,1.08,.13,1.52Zm-18.41-5.08h6.14c.88,0,1.58-.34,2.11-1.02,.53-.68,.79-1.44,.79-2.28,0-.79-.32-1.47-.96-2.05-.64-.57-1.24-.86-1.81-.86h-6.27c-.44,0-.81,.15-1.12,.46-.31,.31-.46,.68-.46,1.12v3.04c0,.44,.15,.81,.46,1.12s.68,.46,1.12,.46Zm6.93,10.89h-6.93c-.44,0-.81,.15-1.12,.46-.31,.31-.46,.68-.46,1.12v3.76c0,.44,.15,.82,.46,1.12,.31,.31,.68,.46,1.12,.46h7.39c.79,0,1.54-.33,2.24-.99,.7-.66,1.06-1.43,1.06-2.31,0-.79-.34-1.59-1.02-2.41-.68-.81-1.59-1.22-2.74-1.22Z"/><path class="cls-1" d="M557.02,410.69c0-3.43,.66-6.67,1.98-9.7,1.32-3.04,3.1-5.69,5.35-7.95,2.24-2.27,4.88-4.06,7.92-5.38,3.04-1.32,6.27-1.98,9.7-1.98s6.67,.66,9.7,1.98c3.04,1.32,5.69,3.11,7.95,5.38,2.27,2.27,4.06,4.92,5.38,7.95,1.32,3.04,1.98,6.27,1.98,9.7s-.66,6.67-1.98,9.7c-1.32,3.04-3.11,5.69-5.38,7.95s-4.92,4.06-7.95,5.38c-3.04,1.32-6.27,1.98-9.7,1.98s-6.67-.66-9.7-1.98-5.68-3.11-7.92-5.38c-2.24-2.27-4.03-4.92-5.35-7.95-1.32-3.04-1.98-6.27-1.98-9.7Zm13.07,0c0,1.67,.31,3.26,.92,4.75,.62,1.5,1.46,2.82,2.54,3.96,1.08,1.14,2.34,2.06,3.79,2.74,1.45,.68,2.99,1.02,4.62,1.02s3.17-.34,4.62-1.02c1.45-.68,2.73-1.59,3.83-2.74,1.1-1.14,1.96-2.46,2.57-3.96,.62-1.5,.92-3.08,.92-4.75s-.31-3.2-.92-4.72c-.62-1.52-1.47-2.84-2.57-3.96s-2.38-2.02-3.83-2.71c-1.45-.68-2.99-1.02-4.62-1.02s-3.17,.34-4.62,1.02c-1.45,.68-2.72,1.58-3.79,2.71-1.08,1.12-1.93,2.44-2.54,3.96-.62,1.52-.92,3.09-.92,4.72Z"/><path class="cls-1" d="M657.73,424.29v8.98c0,.44-.15,.81-.46,1.12s-.68,.46-1.12,.46h-32.93c-.48,0-.87-.15-1.16-.46s-.43-.68-.43-1.12v-45.14c0-.44,.14-.81,.43-1.12,.29-.31,.67-.46,1.16-.46h9.9c.44,0,.81,.16,1.12,.46,.31,.31,.46,.68,.46,1.12v33c0,.44,.14,.82,.43,1.12,.29,.31,.67,.46,1.16,.46h19.87c.44,0,.81,.16,1.12,.46,.31,.31,.46,.68,.46,1.12Z"/></g></g></g></svg>